<?xml version="1.0" encoding="UTF-8"?>
<svg id="Calque_2" data-name="Calque 2" xmlns="http://www.w3.org/2000/svg" viewBox="0 0 50 50">
  <defs>
    <style>
      .cls-1 {
        fill: #fff;
      }
    </style>
  </defs>
  <g id="Premiere_page" data-name="Premiere page">
    <g>
      <path class="cls-1" d="m24.93,49.79c-6.95-8.94-13.94-17.43-16.72-28.4-1.75-6.89,1.03-13.99,6.91-18.09,5.86-4.09,13.73-4.11,19.66-.06,5.87,4.01,8.73,11.22,7.04,18.05-2.46,9.94-8.54,17.85-14.59,25.77-.62.81-1.32,1.56-2.31,2.73h0Zm.07-44.57c-6.64,0-12.38,5.78-12.33,12.41.05,6.53,5.63,12.14,12.17,12.26,6.59.12,12.43-5.61,12.48-12.26.05-6.62-5.7-12.41-12.33-12.41h.01Z"/>
      <path class="cls-1" d="m26.82,10.37c-1.7,2.13-2.6,4.07-.61,6.03,1.99,1.96,3.92.97,5.76-.49.76,3.73-.4,6.49-3.31,8.15-2.69,1.53-6.22,1.14-8.6-.95-2.34-2.06-3.13-5.55-1.89-8.42,1.41-3.27,4.12-4.7,8.66-4.31h-.01Z"/>
    </g>
  </g>
</svg>