<?xml version="1.0" encoding="UTF-8"?>
<svg id="Calque_2" data-name="Calque 2" xmlns="http://www.w3.org/2000/svg" viewBox="0 0 50 50">
  <defs>
    <style>
      .cls-1 {
        fill: #fff;
      }
    </style>
  </defs>
  <g id="Premiere_page" data-name="Premiere page">
    <g>
      <path class="cls-1" d="m.28,14.26c2.28,1.47,4.48,2.9,6.68,4.32,5.57,3.61,11.16,7.2,16.72,10.83.96.63,1.74.6,2.68-.02,7.6-4.95,15.24-9.88,22.85-14.81.14-.1.29-.18.49-.3.01.16.04.29.04.4,0,8.07,0,16.15,0,24.22,0,3.11-2.76,5.87-5.87,5.87-12.58,0-25.15,0-37.73,0-3.07,0-5.86-2.73-5.87-5.77-.01-8.13,0-16.27,0-24.41,0-.08,0-.16.02-.34Z"/>
      <path class="cls-1" d="m24.98,5.21h18.65c2.89,0,5.28,1.94,5.95,4.75.07.32,0,.49-.27.67-7.99,5.17-15.99,10.34-23.98,15.52-.26.16-.43.15-.68,0C16.69,20.97,8.71,15.81.72,10.65c-.32-.21-.38-.4-.29-.75.69-2.79,3.07-4.69,5.95-4.69h18.6Z"/>
    </g>
  </g>
</svg>