<?xml version="1.0" encoding="UTF-8"?>
<svg id="Calque_2" data-name="Calque 2" xmlns="http://www.w3.org/2000/svg" viewBox="0 0 50.65 50.64">
  <defs>
    <style>
      .cls-1 {
        fill: #fff;
      }
    </style>
  </defs>
  <g id="Premiere_page" data-name="Premiere page">
    <g>
      <path class="cls-1" d="m35.3,35.5c3.9,3.97,7.7,7.85,11.48,11.7-1.68,2.2-3.89,3.13-6.6,3.12-4.37,0-8.34-1.36-12.12-3.39-4.5-2.42-8.44-5.6-12.12-9.11-3.99-3.81-7.67-7.89-10.65-12.56-2.11-3.29-3.79-6.77-4.56-10.64-.4-1.98-.54-3.98-.26-5.98.29-2.08,1.5-3.6,3.1-4.9,3.79,3.86,7.6,7.74,11.47,11.67-.39.36-.76.7-1.12,1.05-.97.98-1.06,1.86-.26,2.97.87,1.2,1.79,2.38,2.69,3.56,4,5.28,8.87,9.65,14.2,13.52,1.95,1.42,2.48,1.4,4.16-.29.21-.21.38-.47.59-.72h0Z"/>
      <path class="cls-1" d="m36.54,34.35c.57-.55,1.09-1.08,1.62-1.58,1.04-.98,2.56-1.04,3.59-.03,2.55,2.51,5.1,5.04,7.59,7.61,1.35,1.39,1.28,2.99-.03,4.39-.41.43-.81.85-1.26,1.31-3.83-3.91-7.63-7.78-11.5-11.71Z"/>
      <path class="cls-1" d="m16.2,14.18c-3.83-3.9-7.64-7.77-11.49-11.69.58-.53,1.09-1.09,1.68-1.54,1.11-.85,2.35-.83,3.48,0,.29.21.55.46.81.7,2.32,2.32,4.64,4.64,6.96,6.96,1.32,1.33,1.31,2.8-.02,4.14-.47.47-.92.94-1.42,1.44h0Z"/>
    </g>
  </g>
</svg>